<mxfile host="app.diagrams.net" modified="2023-07-23T15:57:21.795Z" agent="Mozilla/5.0 (Windows NT 10.0; Win64; x64) AppleWebKit/537.36 (KHTML, like Gecko) Chrome/114.0.0.0 Safari/537.36" etag="p_zGTO5xEHCfwPdiWXYh" version="21.6.5" type="device">
  <diagram name="Page-1" id="dXWTa_48K64YPTKY7eRP">
    <mxGraphModel dx="1434" dy="756" grid="1" gridSize="10" guides="1" tooltips="1" connect="1" arrows="1" fold="1" page="1" pageScale="1" pageWidth="850" pageHeight="1100" math="0" shadow="0">
      <root>
        <mxCell id="0" />
        <mxCell id="1" parent="0" />
        <mxCell id="hZ651mP8i6vX2T_zThu8-1" value="Post" style="swimlane;fontStyle=0;childLayout=stackLayout;horizontal=1;startSize=30;horizontalStack=0;resizeParent=1;resizeParentMax=0;resizeLast=0;collapsible=1;marginBottom=0;whiteSpace=wrap;html=1;" vertex="1" parent="1">
          <mxGeometry x="40" y="480" width="120" height="210" as="geometry" />
        </mxCell>
        <mxCell id="hZ651mP8i6vX2T_zThu8-2" value="id" style="text;strokeColor=none;fillColor=none;align=left;verticalAlign=middle;spacingLeft=4;spacingRight=4;overflow=hidden;points=[[0,0.5],[1,0.5]];portConstraint=eastwest;rotatable=0;whiteSpace=wrap;html=1;" vertex="1" parent="hZ651mP8i6vX2T_zThu8-1">
          <mxGeometry y="30" width="120" height="30" as="geometry" />
        </mxCell>
        <mxCell id="hZ651mP8i6vX2T_zThu8-3" value="timedate&lt;br&gt;" style="text;strokeColor=none;fillColor=none;align=left;verticalAlign=middle;spacingLeft=4;spacingRight=4;overflow=hidden;points=[[0,0.5],[1,0.5]];portConstraint=eastwest;rotatable=0;whiteSpace=wrap;html=1;" vertex="1" parent="hZ651mP8i6vX2T_zThu8-1">
          <mxGeometry y="60" width="120" height="30" as="geometry" />
        </mxCell>
        <mxCell id="hZ651mP8i6vX2T_zThu8-4" value="title" style="text;strokeColor=none;fillColor=none;align=left;verticalAlign=middle;spacingLeft=4;spacingRight=4;overflow=hidden;points=[[0,0.5],[1,0.5]];portConstraint=eastwest;rotatable=0;whiteSpace=wrap;html=1;" vertex="1" parent="hZ651mP8i6vX2T_zThu8-1">
          <mxGeometry y="90" width="120" height="30" as="geometry" />
        </mxCell>
        <mxCell id="hZ651mP8i6vX2T_zThu8-5" value="content" style="text;strokeColor=none;fillColor=none;align=left;verticalAlign=middle;spacingLeft=4;spacingRight=4;overflow=hidden;points=[[0,0.5],[1,0.5]];portConstraint=eastwest;rotatable=0;whiteSpace=wrap;html=1;" vertex="1" parent="hZ651mP8i6vX2T_zThu8-1">
          <mxGeometry y="120" width="120" height="30" as="geometry" />
        </mxCell>
        <mxCell id="hZ651mP8i6vX2T_zThu8-6" value="tags" style="text;strokeColor=none;fillColor=none;align=left;verticalAlign=middle;spacingLeft=4;spacingRight=4;overflow=hidden;points=[[0,0.5],[1,0.5]];portConstraint=eastwest;rotatable=0;whiteSpace=wrap;html=1;" vertex="1" parent="hZ651mP8i6vX2T_zThu8-1">
          <mxGeometry y="150" width="120" height="30" as="geometry" />
        </mxCell>
        <mxCell id="hZ651mP8i6vX2T_zThu8-7" value="rating" style="text;strokeColor=none;fillColor=none;align=left;verticalAlign=middle;spacingLeft=4;spacingRight=4;overflow=hidden;points=[[0,0.5],[1,0.5]];portConstraint=eastwest;rotatable=0;whiteSpace=wrap;html=1;" vertex="1" parent="hZ651mP8i6vX2T_zThu8-1">
          <mxGeometry y="180" width="120" height="30" as="geometry" />
        </mxCell>
        <mxCell id="hZ651mP8i6vX2T_zThu8-8" value="tasteit - v.0.1" style="rounded=0;whiteSpace=wrap;html=1;fillColor=#e1d5e7;strokeColor=#9673a6;" vertex="1" parent="1">
          <mxGeometry width="120" height="20" as="geometry" />
        </mxCell>
        <mxCell id="hZ651mP8i6vX2T_zThu8-12" value="" style="edgeStyle=orthogonalEdgeStyle;rounded=0;orthogonalLoop=1;jettySize=auto;html=1;" edge="1" parent="1" source="hZ651mP8i6vX2T_zThu8-10" target="hZ651mP8i6vX2T_zThu8-11">
          <mxGeometry relative="1" as="geometry" />
        </mxCell>
        <mxCell id="hZ651mP8i6vX2T_zThu8-16" value="" style="edgeStyle=orthogonalEdgeStyle;rounded=0;orthogonalLoop=1;jettySize=auto;html=1;" edge="1" parent="1" source="hZ651mP8i6vX2T_zThu8-10" target="hZ651mP8i6vX2T_zThu8-15">
          <mxGeometry relative="1" as="geometry" />
        </mxCell>
        <mxCell id="hZ651mP8i6vX2T_zThu8-27" style="edgeStyle=orthogonalEdgeStyle;rounded=0;orthogonalLoop=1;jettySize=auto;html=1;exitX=1;exitY=0.5;exitDx=0;exitDy=0;entryX=0.5;entryY=0;entryDx=0;entryDy=0;" edge="1" parent="1" source="hZ651mP8i6vX2T_zThu8-10" target="hZ651mP8i6vX2T_zThu8-25">
          <mxGeometry relative="1" as="geometry" />
        </mxCell>
        <mxCell id="hZ651mP8i6vX2T_zThu8-10" value="Home" style="rounded=0;whiteSpace=wrap;html=1;" vertex="1" parent="1">
          <mxGeometry x="365" y="40" width="120" height="40" as="geometry" />
        </mxCell>
        <mxCell id="hZ651mP8i6vX2T_zThu8-14" value="" style="edgeStyle=orthogonalEdgeStyle;rounded=0;orthogonalLoop=1;jettySize=auto;html=1;" edge="1" parent="1" source="hZ651mP8i6vX2T_zThu8-11" target="hZ651mP8i6vX2T_zThu8-13">
          <mxGeometry relative="1" as="geometry" />
        </mxCell>
        <mxCell id="hZ651mP8i6vX2T_zThu8-11" value="POSTS" style="whiteSpace=wrap;html=1;rounded=0;" vertex="1" parent="1">
          <mxGeometry x="40" y="120" width="120" height="60" as="geometry" />
        </mxCell>
        <mxCell id="hZ651mP8i6vX2T_zThu8-13" value="FULL POST" style="whiteSpace=wrap;html=1;rounded=0;" vertex="1" parent="1">
          <mxGeometry x="40" y="240" width="120" height="160" as="geometry" />
        </mxCell>
        <mxCell id="hZ651mP8i6vX2T_zThu8-18" value="" style="edgeStyle=orthogonalEdgeStyle;rounded=0;orthogonalLoop=1;jettySize=auto;html=1;" edge="1" parent="1" source="hZ651mP8i6vX2T_zThu8-15" target="hZ651mP8i6vX2T_zThu8-17">
          <mxGeometry relative="1" as="geometry" />
        </mxCell>
        <mxCell id="hZ651mP8i6vX2T_zThu8-15" value="CATEGORIES" style="whiteSpace=wrap;html=1;rounded=0;" vertex="1" parent="1">
          <mxGeometry x="200" y="120" width="120" height="60" as="geometry" />
        </mxCell>
        <mxCell id="hZ651mP8i6vX2T_zThu8-20" value="" style="edgeStyle=orthogonalEdgeStyle;rounded=0;orthogonalLoop=1;jettySize=auto;html=1;" edge="1" parent="1" source="hZ651mP8i6vX2T_zThu8-17" target="hZ651mP8i6vX2T_zThu8-19">
          <mxGeometry relative="1" as="geometry" />
        </mxCell>
        <mxCell id="hZ651mP8i6vX2T_zThu8-17" value="CATEGORIA" style="whiteSpace=wrap;html=1;rounded=0;" vertex="1" parent="1">
          <mxGeometry x="200" y="200" width="120" height="40" as="geometry" />
        </mxCell>
        <mxCell id="hZ651mP8i6vX2T_zThu8-19" value="TOP 10" style="whiteSpace=wrap;html=1;rounded=0;" vertex="1" parent="1">
          <mxGeometry x="200" y="280" width="120" height="120" as="geometry" />
        </mxCell>
        <mxCell id="hZ651mP8i6vX2T_zThu8-24" value="" style="edgeStyle=orthogonalEdgeStyle;rounded=0;orthogonalLoop=1;jettySize=auto;html=1;" edge="1" parent="1" source="hZ651mP8i6vX2T_zThu8-21" target="hZ651mP8i6vX2T_zThu8-23">
          <mxGeometry relative="1" as="geometry" />
        </mxCell>
        <mxCell id="hZ651mP8i6vX2T_zThu8-21" value="REQUESTS" style="whiteSpace=wrap;html=1;rounded=0;" vertex="1" parent="1">
          <mxGeometry x="520" y="120" width="120" height="60" as="geometry" />
        </mxCell>
        <mxCell id="hZ651mP8i6vX2T_zThu8-23" value="FORM&lt;br&gt;REQUESTS" style="whiteSpace=wrap;html=1;rounded=0;" vertex="1" parent="1">
          <mxGeometry x="520" y="240" width="120" height="160" as="geometry" />
        </mxCell>
        <mxCell id="hZ651mP8i6vX2T_zThu8-29" value="" style="edgeStyle=orthogonalEdgeStyle;rounded=0;orthogonalLoop=1;jettySize=auto;html=1;" edge="1" parent="1" source="hZ651mP8i6vX2T_zThu8-25" target="hZ651mP8i6vX2T_zThu8-28">
          <mxGeometry relative="1" as="geometry" />
        </mxCell>
        <mxCell id="hZ651mP8i6vX2T_zThu8-25" value="ABOUT" style="whiteSpace=wrap;html=1;rounded=0;" vertex="1" parent="1">
          <mxGeometry x="680" y="120" width="120" height="60" as="geometry" />
        </mxCell>
        <mxCell id="hZ651mP8i6vX2T_zThu8-28" value="TEAM" style="whiteSpace=wrap;html=1;rounded=0;" vertex="1" parent="1">
          <mxGeometry x="680" y="240" width="120" height="160" as="geometry" />
        </mxCell>
        <mxCell id="hZ651mP8i6vX2T_zThu8-30" value="" style="endArrow=classic;html=1;rounded=0;entryX=0.5;entryY=0;entryDx=0;entryDy=0;" edge="1" parent="1" target="hZ651mP8i6vX2T_zThu8-21">
          <mxGeometry width="50" height="50" relative="1" as="geometry">
            <mxPoint x="580" y="60" as="sourcePoint" />
            <mxPoint x="450" y="260" as="targetPoint" />
          </mxGeometry>
        </mxCell>
      </root>
    </mxGraphModel>
  </diagram>
</mxfile>
